<svg  width="430" height="430" viewBox="0 0 430 430" fill="none" xmlns="http://www.w3.org/2000/svg">
<path d="M325.497 156.221C355.647 122.131 357.26 86.387 352.146 69.784C334.124 66.665 299.764 72.7083 269.614 106.799C239.465 140.889 237.537 176.4 242.966 193.236C257.385 197.007 295.348 190.311 325.497 156.221Z" stroke="#08A88A" stroke-width="12" stroke-miterlimit="10" stroke-linecap="round" stroke-linejoin="round"/>
<path d="M157.4 148.1C177.5 165.9 187.4 189.6 184.4 208.4C166.1 213.6 141.4 206.7 121.3 188.9C101.2 171.1 91.3 147.4 94.3 128.6C112.5 123.4 137.3 130.3 157.4 148.1Z" stroke="#08A88A" stroke-width="12" stroke-miterlimit="10" stroke-linecap="round" stroke-linejoin="round"/>
<path d="M146.3 173.5C163.2 182.5 198.4 212.4 207.2 260.6C208.9 269.7 209.3 278.3 209 286.2C208 275.4 207.6 254.2 217.5 230.6C221.7 220.7 226.8 213.2 242.9 193.2C254.1 179.3 269.6 160.6 289.2 138.9" stroke="#08A88A" stroke-width="12" stroke-miterlimit="10" stroke-linecap="round" stroke-linejoin="round"/>
<path d="M339.7 361.7H76C76 336.6 96.3 316.3 121.4 316.3C129.8 316.3 137.7 318.6 144.5 322.6C157.2 300.8 180.8 286.2 207.8 286.2C234.8 286.2 258.4 300.8 271.1 322.6C277.9 318.6 285.8 316.3 294.2 316.3C319.4 316.3 339.7 336.6 339.7 361.7Z" stroke="#121331" stroke-width="12" stroke-miterlimit="10" stroke-linecap="round" stroke-linejoin="round"/>
</svg>
